<svg width="16" height="16" viewBox="0 0 16 16" fill="none" xmlns="http://www.w3.org/2000/svg">
<path d="M15.3335 2.66675V6.66675H11.3335" stroke="white" stroke-width="1.33333" stroke-linecap="round" stroke-linejoin="round"/>
<path d="M0.666504 13.3335V9.3335H4.6665" stroke="white" stroke-width="1.33333" stroke-linecap="round" stroke-linejoin="round"/>
<path d="M2.33984 6.00013C2.67795 5.04465 3.25259 4.1904 4.01015 3.51708C4.7677 2.84375 5.68348 2.37331 6.67203 2.14964C7.66057 1.92597 8.68967 1.95636 9.6633 2.23798C10.6369 2.5196 11.5233 3.04327 12.2398 3.76013L15.3332 6.6668M0.666504 9.33346L3.75984 12.2401C4.47633 12.957 5.36275 13.4807 6.33638 13.7623C7.31 14.0439 8.3391 14.0743 9.32764 13.8506C10.3162 13.627 11.232 13.1565 11.9895 12.4832C12.7471 11.8099 13.3217 10.9556 13.6598 10.0001" stroke="white" stroke-opacity="0.9" stroke-width="1.33333" stroke-linecap="round" stroke-linejoin="round"/>
</svg>
