<?xml version="1.0" standalone="no"?>
<!DOCTYPE svg PUBLIC "-//W3C//DTD SVG 20010904//EN"
 "http://www.w3.org/TR/2001/REC-SVG-20010904/DTD/svg10.dtd">
<svg version="1.0" xmlns="http://www.w3.org/2000/svg"
 width="252.000000pt" height="263.000000pt" viewBox="0 0 252.000000 263.000000"
 preserveAspectRatio="xMidYMid meet">

<g transform="translate(0.000000,263.000000) scale(0.100000,-0.100000)"
fill="#000000" stroke="none">
<path d="M795 2405 l-470 -204 -3 -143 c-14 -665 324 -1301 885 -1662 39 -25
76 -46 81 -46 16 0 192 119 267 180 85 70 244 233 308 317 252 329 397 777
397 1226 l0 124 -480 207 c-263 113 -487 206 -497 205 -10 0 -229 -93 -488
-204z m937 -91 l437 -187 7 -55 c9 -77 -12 -315 -41 -458 -94 -459 -355 -847
-740 -1096 -49 -32 -94 -58 -100 -58 -6 0 -51 26 -100 58 -460 298 -731 770
-775 1350 -5 67 -6 154 -3 192 l6 69 161 70 c89 38 280 122 426 185 146 64
270 116 275 116 6 0 207 -83 447 -186z"/>
<path d="M945 2314 c-181 -79 -367 -160 -413 -180 l-82 -37 0 -113 c0 -374
127 -758 350 -1055 99 -132 278 -294 432 -392 l56 -36 73 45 c485 299 768 821
769 1420 l0 131 -419 182 c-230 99 -422 181 -427 180 -5 0 -157 -65 -339 -145z
m285 -345 l0 -52 -175 -218 -175 -219 180 0 180 0 0 -65 0 -65 -285 0 -285 0
0 49 c0 48 2 51 175 267 l175 219 -165 3 -165 2 0 65 0 65 270 0 270 0 0 -51z
m542 27 c62 -23 140 -93 169 -153 20 -41 23 -64 24 -153 0 -118 -15 -165 -75
-234 -71 -80 -163 -106 -380 -106 l-150 0 0 336 0 336 183 -4 c141 -4 193 -9
229 -22z"/>
<path d="M1510 1685 l0 -208 89 5 c104 6 159 31 194 88 18 28 22 50 22 116 0
70 -3 85 -27 121 -36 55 -84 76 -190 81 l-88 4 0 -207z"/>
<path d="M200 957 c0 -58 54 -111 84 -82 24 24 2 72 -45 96 l-39 19 0 -33z"/>
<path d="M2365 974 c-40 -20 -52 -34 -60 -66 -5 -20 -2 -29 13 -37 28 -15 69
19 78 64 9 50 3 57 -31 39z"/>
<path d="M346 958 c-19 -27 -21 -79 -4 -96 17 -17 26 -15 44 13 13 20 14 30 4
59 -15 46 -25 51 -44 24z"/>
<path d="M2210 946 c-19 -59 11 -114 46 -85 18 15 18 53 -1 89 -20 39 -31 38
-45 -4z"/>
<path d="M2282 870 c0 -19 2 -27 5 -17 2 9 2 25 0 35 -3 9 -5 1 -5 -18z"/>
<path d="M194 832 c11 -45 40 -77 74 -80 26 -3 32 0 32 17 0 44 -19 64 -82 82
-29 8 -30 7 -24 -19z"/>
<path d="M2361 846 c-63 -22 -92 -96 -39 -96 32 0 59 20 74 55 24 59 21 62
-35 41z"/>
<path d="M312 830 c0 -14 2 -19 5 -12 2 6 2 18 0 25 -3 6 -5 1 -5 -13z"/>
<path d="M388 825 c-28 -38 -19 -105 13 -105 16 0 39 33 39 55 0 26 -19 75
-29 75 -3 0 -14 -11 -23 -25z"/>
<path d="M2171 831 c-15 -26 -14 -84 1 -99 34 -34 70 16 48 67 -18 45 -36 57
-49 32z"/>
<path d="M2271 804 c0 -11 3 -14 6 -6 3 7 2 16 -1 19 -3 4 -6 -2 -5 -13z"/>
<path d="M321 784 c0 -11 3 -14 6 -6 3 7 2 16 -1 19 -3 4 -6 -2 -5 -13z"/>
<path d="M2251 743 c-42 -119 -216 -327 -352 -418 -86 -57 -235 -129 -314
-150 -33 -9 -103 -20 -155 -24 l-95 -7 67 -8 c37 -4 88 -5 115 -1 37 5 44 4
31 -5 -44 -28 -1 -103 66 -115 35 -7 136 11 136 24 0 10 -72 77 -97 90 -12 6
-34 11 -50 12 -20 0 -11 6 32 18 180 54 373 194 507 371 52 67 132 222 126
241 -2 6 -9 -7 -17 -28z"/>
<path d="M330 755 c0 -5 5 -17 10 -25 5 -8 10 -10 10 -5 0 6 -5 17 -10 25 -5
8 -10 11 -10 5z"/>
<path d="M2110 705 c-27 -44 -30 -89 -7 -112 36 -36 75 21 57 85 -17 64 -25
68 -50 27z"/>
<path d="M445 696 c-19 -45 -12 -92 17 -109 47 -30 67 70 24 120 l-25 28 -16
-39z"/>
<path d="M215 683 c20 -48 34 -64 69 -78 41 -18 66 -8 66 24 0 35 -37 70 -87
82 -63 14 -65 13 -48 -28z"/>
<path d="M2320 709 c-40 -11 -80 -51 -80 -80 0 -11 10 -23 23 -28 34 -13 79
10 104 55 37 65 30 74 -47 53z"/>
<path d="M354 695 c16 -49 107 -183 170 -251 126 -136 277 -235 426 -280 45
-14 64 -23 48 -23 -15 -1 -38 -5 -51 -10 -25 -10 -97 -78 -97 -92 0 -13 99
-31 134 -25 40 8 86 47 86 75 0 11 -7 26 -15 35 -14 14 -9 15 47 10 35 -3 83
-1 108 4 45 10 45 10 -26 11 -284 4 -619 215 -796 501 -22 36 -37 56 -34 45z"/>
<path d="M542 603 c-28 -55 -15 -132 26 -148 18 -7 52 27 52 52 0 22 -29 79
-50 98 -17 16 -19 16 -28 -2z"/>
<path d="M2012 586 c-36 -41 -43 -93 -16 -120 21 -22 29 -20 53 10 23 30 26
74 8 118 l-13 29 -32 -37z"/>
<path d="M280 534 c19 -48 50 -82 85 -94 41 -14 72 -6 80 20 15 47 -52 100
-127 100 -47 0 -47 0 -38 -26z"/>
<path d="M2206 545 c-56 -30 -75 -84 -35 -105 42 -23 105 14 139 81 l20 39
-47 0 c-27 0 -61 -7 -77 -15z"/>
<path d="M666 494 c-3 -9 -6 -37 -6 -62 0 -37 6 -53 25 -75 31 -32 60 -35 76
-6 18 35 2 84 -41 123 -46 41 -46 41 -54 20z"/>
<path d="M1876 469 c-48 -48 -57 -80 -36 -120 27 -50 101 12 99 84 0 23 -4 51
-8 62 -8 18 -12 16 -55 -26z"/>
<path d="M820 357 c0 -74 24 -117 65 -117 71 0 35 126 -47 171 -16 9 -18 4
-18 -54z"/>
<path d="M1722 383 c-43 -41 -58 -78 -48 -118 4 -17 13 -25 29 -25 45 0 77 46
77 110 0 72 -11 78 -58 33z"/>
<path d="M403 393 c-31 -6 -29 -16 15 -63 33 -34 45 -40 79 -40 51 0 71 20 54
56 -18 41 -80 60 -148 47z"/>
<path d="M2091 382 c-71 -36 -67 -85 7 -90 36 -3 45 1 81 37 23 23 41 45 41
50 0 8 -47 21 -79 21 -9 0 -31 -8 -50 -18z"/>
<path d="M950 322 c0 -5 7 -31 15 -58 17 -56 52 -87 93 -82 21 2 28 9 30 31 2
16 -4 39 -12 53 -25 37 -126 83 -126 56z"/>
<path d="M1582 313 c-18 -9 -42 -27 -52 -41 -24 -30 -26 -80 -4 -89 46 -17
114 50 114 113 0 38 -9 41 -58 17z"/>
<path d="M580 271 c-29 -9 -90 -40 -90 -45 0 -2 23 -18 50 -36 39 -25 61 -32
95 -32 52 1 85 19 85 47 0 30 -12 43 -53 60 -40 16 -50 17 -87 6z"/>
<path d="M1945 273 c-90 -25 -87 -108 5 -114 52 -3 68 2 115 36 l49 34 -46 21
c-52 23 -94 31 -123 23z"/>
<path d="M740 171 c-47 -23 -90 -52 -90 -60 0 -12 67 -40 109 -47 46 -7 97 16
113 52 10 21 8 28 -8 43 -28 27 -83 32 -124 12z"/>
<path d="M1795 185 c-5 -2 -22 -6 -37 -9 -62 -14 -56 -75 9 -103 39 -16 80
-12 145 14 32 13 36 18 27 30 -26 31 -121 76 -144 68z"/>
</g>
</svg>
